<svg width="50" height="50" viewBox="0 0 50 50" fill="none" xmlns="http://www.w3.org/2000/svg">
<g clip-path="url(#clip0_1_2)">
<g filter="url(#filter0_d_1_2)">
<path d="M20.3484 46.7745L39.9229 28.1036L43.3949 26.1589L23.8211 44.8296L20.3484 46.7745Z" stroke="white" stroke-width="0.5"/>
<path d="M39.7728 27.6146L30.1244 22.2462L34.8392 19.6062L44.4871 24.9741L39.7728 27.6146Z" stroke="white" stroke-width="0.5"/>
<path d="M30.4854 21.471L37.2125 12.2295L41.3959 9.8866L34.6689 19.1285L30.4854 21.471Z" stroke="white" stroke-width="0.5"/>
<path d="M37.0422 11.7518L26.1652 5.69994L30.8801 3.05944L41.757 9.11127L37.0422 11.7518Z" stroke="white" stroke-width="0.5"/>
<path d="M36.6743 12.1193L29.4093 22.0998L29.2431 22.3281L29.4899 22.4654L39.355 27.9543L19.4267 46.9626L27.3603 27.792L27.4455 27.5862L27.2509 27.4779L16.3929 21.4362L25.7411 6.03615L36.6743 12.1193Z" stroke="white" stroke-width="0.5"/>
</g>
<path d="M28.7287 27.1278L33.9556 24.2002L12.9264 44.2592L7.69897 47.1867L28.7287 27.1278Z" fill="#FF9911"/>
<path d="M18.567 21.4738L23.7944 18.5468L33.9555 24.2002L28.7287 27.1278L18.567 21.4738Z" fill="#FFEB9A"/>
<path d="M25.9981 11.265L31.2255 8.33743L23.7944 18.5468L18.567 21.4738L25.9981 11.265Z" fill="#FF9911"/>
<path d="M14.6079 4.92753L19.8353 2L31.2255 8.33743L25.9981 11.265L14.6079 4.92753Z" fill="#FFEB9A"/>
<path d="M28.7287 27.1278L7.69898 47.1867L16.0849 26.9233L5 20.7553L14.6079 4.92754L25.9981 11.265L18.567 21.4738L28.7287 27.1278Z" fill="#FEDA44"/>
</g>
<defs>
<filter id="filter0_d_1_2" x="-83.9556" y="-97.2269" width="228.956" height="245.187" filterUnits="userSpaceOnUse" color-interpolation-filters="sRGB">
<feFlood flood-opacity="0" result="BackgroundImageFix"/>
<feColorMatrix in="SourceAlpha" type="matrix" values="0 0 0 0 0 0 0 0 0 0 0 0 0 0 0 0 0 0 127 0" result="hardAlpha"/>
<feOffset/>
<feGaussianBlur stdDeviation="50"/>
<feComposite in2="hardAlpha" operator="out"/>
<feColorMatrix type="matrix" values="0 0 0 0 0.996078 0 0 0 0 0.854902 0 0 0 0 0.266667 0 0 0 0.4 0"/>
<feBlend mode="normal" in2="BackgroundImageFix" result="effect1_dropShadow_1_2"/>
<feBlend mode="normal" in="SourceGraphic" in2="effect1_dropShadow_1_2" result="shape"/>
</filter>
<clipPath id="clip0_1_2">
<rect width="50" height="50" fill="white"/>
</clipPath>
</defs>
</svg>
